<svg xmlns="http://www.w3.org/2000/svg" viewBox="0 0 1499.73 405.77"><defs><style>.cls-1{fill:#fff;}.cls-2{fill:#f38dba;}.cls-3{fill:#faa32e;}</style></defs><g id="Layer_2" data-name="Layer 2"><path class="cls-1" d="M1449.52,297c-12.07-26.92-25.2-52.2-38-76.64,13.28-21.14,28.15-48.43,37.34-73.37a27,27,0,0,0-25-36.9h-79.63a26.89,26.89,0,0,0-17.32,6.29,27,27,0,0,0-17.32-6.29h-78.77l2.88-74.78c0-.48,0-1,0-1.45a27,27,0,0,0-27-27H1028.41a27,27,0,0,0-26.82,29.7c1.68,16.54,2.06,36.67,2.42,56.13l0,1.08V95.2a94.4,94.4,0,0,0-6.37-7.45A101,101,0,0,0,959,62.68c-14.79-5.47-31.74-8.24-50.37-8.24-43.18,0-75.2,10.72-97.89,32.78a103.15,103.15,0,0,0-12.7,15l16.26-50.14A27,27,0,0,0,788.9,16.12H710A27,27,0,0,0,683.1,44.3l.47,10.21q-3.48-.07-7.07-.07c-42.14,0-71.67,6.81-92.93,21.42a80.75,80.75,0,0,0-16.54,15,43,43,0,0,0-34.27-1.62c-22,8.3-42,22.39-55.18,33.08-10-4.46-24-8.62-42.39-8.62-1.36,0-2.75,0-4.13.07-19,.64-33,4.8-42.72,9-13.34-10.22-33.79-24-55.9-31.72a43.25,43.25,0,0,0-14.35-2.46,42.56,42.56,0,0,0-6.39.49,128.85,128.85,0,0,0-14-32.28,98.36,98.36,0,0,0-36.54-34.81C246.71,14.13,230,9.33,210.08,7.4l-.17,0c-5.48-.5-15.6-.72-32.83-.72h0c-9.93,0-20.77.08-30.33.14-7.6,0-14.79.1-20,.1h-52A27,27,0,0,0,48,36.6c1.69,16.54,2.06,36.67,2.42,56.13l0,1.08V248.08l0,1.08c-.36,19.47-.73,39.59-2.42,56.13A27,27,0,0,0,74.81,335H168c26.91-.31,50.57-4.57,70.34-12.67,20.17-8.27,36.91-20.71,49.74-37A133.57,133.57,0,0,0,309.19,246c0,.51-.06,1-.08,1.53,0,.27,0,.53,0,.8-1.56,41.84,17.36,66.21,33.86,79.4,18.9,15.1,40.65,20.37,49.94,22.62a198.12,198.12,0,0,0,31.67,4.7c5.18.41,10.36.61,15.4.61a163.66,163.66,0,0,0,40.51-4.85,123.27,123.27,0,0,0,43.24-20.22,113.48,113.48,0,0,0,9.64-8A84.82,84.82,0,0,0,543,311.88a57.7,57.7,0,0,0-2.5,16.79c0,11.29,2.32,21,7.08,29.69,5.64,10.31,14.57,18.67,26.53,24.85,21,10.85,53.21,15.9,101.32,15.9,51.07,0,85.6-8.26,108.69-26a81.84,81.84,0,0,0,27.1-36.77,104.55,104.55,0,0,0,5.5-22.25c22,17.21,52.55,25.3,94.92,25.3,35.12,0,68.69-4.83,94.52-13.59.52-.18,1-.38,1.54-.59.24.3.48.59.74.87a27,27,0,0,0,20,8.89h264.21a27,27,0,0,0,16.59-5.7,27,27,0,0,0,16.58,5.7h99.13a27,27,0,0,0,24.6-38Z"/><path class="cls-2" d="M74.81,308c1.84-18.06,2.21-39.8,2.58-59.7V93.56c-.37-19.9-.74-41.64-2.58-59.7h52c20.63,0,68.54-.73,80.7.37C272,40.5,293.7,82.14,293.7,166.52c0,84.76-29.48,140.41-126,141.51ZM168,229.17c4.05.74,8.84.37,12.9.37,18.42-1.84,22.11-20.64,22.11-64.49,0-46.06-3.69-60.44-18.43-60.44-7,0-12.16.37-16.21,1.48Z"/><path class="cls-2" d="M715.56,234c53.8,0,75.54,20.27,75.54,59,0,51.22-24,79.23-115.71,79.23-93.23,0-108-19.9-108-43.48,0-18.43,15.85-31.33,32.43-34.27-16.21-8.85-24-22.85-24.32-45.33,0-21,13.63-36.11,27.27-42.38-19.16-11.42-28-29.48-28-56,0-47.91,30.22-69.28,101.71-69.28a253.19,253.19,0,0,1,35.38,2.21L710,43.08h78.86l-22.11,68.17c7,10.32,10.32,23.21,10.32,39.43,0,49-29.85,70-100.6,70-5.9,0-11.42,0-16.58-.37-1.85,1.1-2.58,3.31-2.58,6.26,0,4.79,2.58,7.37,14,7.37ZM715.19,315c0-6.26-3.68-8.47-43.85-8.84q-14.93,0-27.64-1.11a10.86,10.86,0,0,0-4.79,8.85c0,7,10,9.95,37.22,9.95C706.72,323.88,715.19,321.66,715.19,315ZM659.92,150.68c0,15.11,5.89,19.53,16.58,19.53,10,0,15.84-4.42,15.84-19.53,0-14.37-5.89-18.8-15.84-18.8C666.18,131.88,659.92,135.94,659.92,150.68Z"/><path class="cls-2" d="M916,239.49c28.38,0,60.44-3.32,84-11.06l-2.58,71.86c-20.64,7-50.48,12.16-85.86,12.16-78.86,0-110.55-29.11-110.55-116.08,0-86.23,40.16-115,107.6-115,63.38,0,91.39,36.85,91.39,88.81,0,14-1.1,36.48-2.95,49C965,220.7,916.76,221.43,888,220.7,890.59,235.43,897.6,239.12,916,239.49Zm-28.74-66c8.1.36,20.63.36,30.22,0,0-16.22-3.32-24-13.64-24C894.65,149.57,889.49,154.73,887.28,173.53Z"/><path class="cls-3" d="M1121.64,234c32.8-.74,65.89-1,87-.69V308h-180.2c1.84-18.06,2.21-39.8,2.58-59.7V93.56c-.37-19.9-.74-41.64-2.58-59.7h178.35l-2.94,76.65c-24-1.84-54.54-3.31-82.18-3.68v32.79c25.79-.37,70.75-.36,87-2.58v59.83c-16.62,0-61.25.06-87,1.35Z"/><path class="cls-3" d="M1307.36,259.46c-6.26,16.19-11.42,35.79-14.74,48.57h-84c12.16-30.68,29.11-63.34,44.22-89.18-15.85-29.83-31-55.39-44.22-81.81h101a434.39,434.39,0,0,0,18.79,39.2h.74a164.91,164.91,0,0,0,15.11-39.2h79.59c-10,27.27-28.37,59.65-43.48,81.81,15.11,29,30.58,57.94,44.59,89.18h-99.13c-4.79-13.35-10.69-32.66-17.69-48.57Z"/><path class="cls-2" d="M440,328.71c-4.69,0-9.14-.21-13.28-.53a173,173,0,0,1-27.44-4c-16.7-4-67.52-16.36-63-78.64l5.76.41c-1.72,23.82,5.05,42.35,20.13,55.08,12.1,10.21,26.92,14.74,38.48,17.54a167.88,167.88,0,0,0,26.54,3.88c31.15,2.44,57.8-3.81,77-18.11a75.29,75.29,0,0,0,6.77-5.65,52.29,52.29,0,0,0,12.68-18.42,55,55,0,0,0,3.6-13.22c.94-6.64.27-16.06-2-28l5.67-1.08c2.43,12.76,3.1,22.54,2.05,29.92a60.76,60.76,0,0,1-4,14.6,58.08,58.08,0,0,1-14.07,20.44,85.26,85.26,0,0,1-7.27,6.07C486.59,324.59,461,328.7,440,328.71Z"/><ellipse class="cls-2" cx="395.35" cy="226.89" rx="5.7" ry="3.89" transform="translate(82.37 558.28) rotate(-76.49)"/><path class="cls-2" d="M436.45,264.18l-.06,3.69,0,4-.05,4-.07,4c-.09,2.68-.11,5.36-.27,8.05a56,56,0,0,1-1,8.08h0a.86.86,0,0,1-1,.66.89.89,0,0,1-.65-.61,52.5,52.5,0,0,1-1.47-8c-.3-2.69-.41-5.39-.57-8.09l-.15-4.05c0-1.35-.05-2.71,0-4.06s0-2.72.09-4.09c0-.69.07-1.38.13-2.07,0-.35.05-.7.1-1.06l.06-.55c0-.21,0-.33.1-.68a2.49,2.49,0,0,1,4.95.45Z"/><path class="cls-2" d="M437,262.38l1.14.95c.4.33.79.67,1.21,1,.82.64,1.66,1.27,2.5,1.89,1.7,1.22,3.44,2.35,5.21,3.43a61,61,0,0,0,11.21,5.13c1,.33,2,.59,2.95.9l1.44.37,1.43.28a22.7,22.7,0,0,0,2.8.33,17.11,17.11,0,0,0,2.69-.1,10.24,10.24,0,0,0,4.89-2,13.94,13.94,0,0,0,3.8-4.74l0-.06a.53.53,0,0,1,.71-.23.55.55,0,0,1,.29.42,10.89,10.89,0,0,1-.33,3.68,11.86,11.86,0,0,1-1.54,3.51,12.82,12.82,0,0,1-6.31,4.94,19.23,19.23,0,0,1-7.77,1c-.64,0-1.25-.12-1.88-.18s-1.23-.19-1.84-.3c-1.16-.29-2.34-.53-3.49-.86a43.64,43.64,0,0,1-12.92-6.19,42.94,42.94,0,0,1-5.45-4.62,35.68,35.68,0,0,1-2.38-2.67c-.37-.46-.75-.93-1.09-1.43s-.67-1-1-1.58a2.37,2.37,0,0,1,3.55-3Z"/><path class="cls-2" d="M436.82,265.44c-.45.55-.83,1-1.25,1.41s-.84.86-1.27,1.26a34.81,34.81,0,0,1-2.71,2.31,33,33,0,0,1-2.91,2c-1,.67-2,1.24-3.05,1.82a44.77,44.77,0,0,1-13.46,4.58c-1.18.19-2.37.3-3.54.45l-1.84.1c-.62,0-1.23,0-1.86,0a19.18,19.18,0,0,1-7.47-1.78,12.64,12.64,0,0,1-5.67-5.41,11.88,11.88,0,0,1-1.25-7.22.53.53,0,0,1,1-.08l0,.07a13.49,13.49,0,0,0,1.27,2.88,11,11,0,0,0,1.78,2.38,10.13,10.13,0,0,0,4.69,2.74,16.21,16.21,0,0,0,2.73.46,23.19,23.19,0,0,0,2.89,0l1.47-.12,1.5-.21c1-.19,2-.34,3.06-.56a57.7,57.7,0,0,0,11.77-4c.93-.48,1.89-.9,2.8-1.4s1.82-1,2.73-1.55,1.78-1.1,2.66-1.67c.44-.29.86-.59,1.29-.89s.85-.63,1.19-.86l.23-.16a2.36,2.36,0,0,1,3.18,3.42Z"/><path class="cls-2" d="M453.92,254.33c-3.41-2.3-8.86-6.56-17.74-7.06s-15.05,3.11-18.69,5a4.37,4.37,0,0,0-.54,7.31,57.94,57.94,0,0,0,13.71,6.64,15.52,15.52,0,0,0,8.62.48,58,58,0,0,0,14.36-5.07A4.37,4.37,0,0,0,453.92,254.33Zm-18.74-1.68c-3.16-.1-5.7-.62-5.68-1.16s2.59-.91,5.74-.81,5.69.63,5.68,1.17S438.33,252.75,435.18,252.65Z"/><path class="cls-2" d="M542.28,114.47c-31.54,11.89-60,39.42-61.28,40.69-1.95.11-16.65-15.53-49-14.44-28.39,1-41.41,11.5-44.64,13.58l-.28.22c-.49.34-1,.7-1.46,1h0s-29.52-27.59-62.08-39A16.46,16.46,0,0,0,301.69,133c1.11,19.49,8.42,51.82,37.2,94.19a125.36,125.36,0,0,0-2.84,21.4c4.5-4.24,11.79-4.81,23.58,5.49,28.69,25.05,47.6,3.87,55.43-27.67,5.34-21.47,11.8-30.4,15.37-33.91a4,4,0,0,1,5.47-.06,29.36,29.36,0,0,1,3.38,3.9c13.62,18.53,25.94,67.55,44.06,67.05,20.8-.56,30.86-18.84,36.87-22.46s11.5,5.47,11.5,5.47a105.28,105.28,0,0,0-3.1-20.75c27.79-43,35.2-75.72,35.86-95.24A16.46,16.46,0,0,0,542.28,114.47ZM343.39,212.31c-26.59-34.15-31.72-76.89-31.72-76.89-1.93-26.25,60.8,31.47,60.8,31.47h0C356.57,182.85,347.78,200.89,343.39,212.31Zm60.89,20.42c-2.52,10.49-10.35,17.6-17.5,15.88s-10.89-11.61-8.37-22.09,10.35-17.6,17.5-15.88S406.8,222.24,404.28,232.73Zm97.32-16.17a1,1,0,0,1-.62.87l-.09,0a58.74,58.74,0,0,0-6.26,2.95,40.8,40.8,0,0,0-5.56,3.72c-.87.67-1.65,1.43-2.45,2.15l-1.11,1.17c-.14.16-.29.31-.43.46a23.19,23.19,0,0,1,4.08-.11,21.27,21.27,0,0,1,6,1.22,21,21,0,0,1,5.35,2.76,1,1,0,0,1-.77,1.8l-.12,0c-.91-.19-1.77-.47-2.65-.64s-1.75-.34-2.63-.4a24.83,24.83,0,0,0-5.17,0,23.92,23.92,0,0,0-5,1c-.41.12-.8.27-1.2.4l-1.16.45c-.38.17-.76.33-1.12.51-.19.09-.36.18-.53.28l-.25.13-.18.1-.07,0a2.9,2.9,0,0,1-4-1.06,3,3,0,0,1-.11-2.69,28.33,28.33,0,0,1,4.24-6.79,14.53,14.53,0,0,1,1.35-1.48l1.45-1.38a29.21,29.21,0,0,1,3.2-2.35,27.52,27.52,0,0,1,7.11-3.21c.63-.15,1.25-.33,1.87-.46s1.26-.25,1.9-.32a20.67,20.67,0,0,1,3.87-.18A1,1,0,0,1,501.6,216.56Zm22-6-31.77-46s57.61-57.31,63.4-33.29C555.23,131.26,556.12,170,523.6,210.57Z"/><path class="cls-2" d="M435.6,317a10,10,0,0,1-2.84.26,9.85,9.85,0,0,1-6.9-3.34c-13.79-15.59-19.41-35.8-19.65-36.65l4.55-1.24c.05.19,5.59,20,18.63,34.76a5.2,5.2,0,0,0,7.41.41C451.29,298,458.56,279,458.63,278.76l4.41,1.66c-.31.82-7.72,20.3-23.07,34.27A9.82,9.82,0,0,1,435.6,317Z"/></g></svg>