<svg xmlns="http://www.w3.org/2000/svg" viewBox="0 0 444.62 405.77"><defs><style>.cls-1{fill:#fff;}.cls-2{fill:#f38dba;}</style></defs><g id="Layer_2" data-name="Layer 2"><path class="cls-1" d="M365.52,85.23a32.93,32.93,0,0,0-35.43-8c-24.8,9.35-47.57,26.87-59.87,37.39-9.17-5.07-24.22-11.21-45.7-11.21-1.28,0-2.59,0-3.89.07-22.62.76-37.56,6.75-46.26,11.5C162,104.87,138.92,88.05,113.82,79.24a33.11,33.11,0,0,0-43.94,33.14C72,150.16,90.77,186.9,107.54,212.69a142.3,142.3,0,0,0-2,18.18c0,.31,0,.61,0,.91-.56,15.74,1.9,30,7.37,42.41a78.92,78.92,0,0,0,23.31,30.11c17.55,14,37.58,18.88,47.2,21.21a194.61,194.61,0,0,0,31,4.58c5.07.4,10.13.6,15.05.6,31.82,0,58.68-8,79.82-23.68a102.76,102.76,0,0,0,9-7.47,76.19,76.19,0,0,0,18.46-26.8,78.82,78.82,0,0,0,5.18-19c1.34-9.41.66-20.77-2.13-35.68-.33-2.46-.72-4.91-1.19-7.36,12-19.33,21.15-38.29,27.3-56.46,5.43-16.07,8.42-31.17,8.89-44.89A32.78,32.78,0,0,0,365.52,85.23Z"/><path class="cls-2" d="M181.75,214.7c2.17.52,4.55-1.63,5.31-4.82s-.37-6.18-2.54-6.7-4.54,1.64-5.31,4.82S179.58,214.18,181.75,214.7Z"/><path class="cls-2" d="M270,253.22a.55.55,0,0,0-.74.24l0,.06a14.49,14.49,0,0,1-3.94,4.93,10.53,10.53,0,0,1-5.08,2.07,16.1,16.1,0,0,1-2.79.1,22.59,22.59,0,0,1-2.91-.34L253,260l-1.49-.39c-1-.31-2.06-.58-3.07-.93a62.6,62.6,0,0,1-11.63-5.33c-1.84-1.11-3.66-2.29-5.42-3.56l-.11-.09a55,55,0,0,0,12.36-4.64,4.54,4.54,0,0,0,.29-7.61c-3.53-2.39-9.19-6.81-18.42-7.33s-15.63,3.23-19.41,5.21a4.55,4.55,0,0,0-.56,7.59,55.48,55.48,0,0,0,12,6.09l-.25.15c-1,.54-1.87,1.11-2.84,1.6s-1.94,1-2.9,1.46a59.15,59.15,0,0,1-12.23,4.14c-1.05.23-2.12.39-3.18.59l-1.55.22-1.54.12a22.92,22.92,0,0,1-3,0,17.54,17.54,0,0,1-2.84-.48,10.52,10.52,0,0,1-4.88-2.84,11.51,11.51,0,0,1-1.84-2.47,14.62,14.62,0,0,1-1.32-3l0-.07a.56.56,0,0,0-.43-.37.56.56,0,0,0-.62.46,12.3,12.3,0,0,0,1.3,7.49,13.22,13.22,0,0,0,5.88,5.62,19.83,19.83,0,0,0,7.77,1.85c.65.05,1.28,0,1.93,0h.07C197,269.41,203,286,214.83,299.34a10.21,10.21,0,0,0,7.16,3.47,10,10,0,0,0,2.95-.26,10.32,10.32,0,0,0,4.54-2.41c12.76-11.62,20.24-26.89,22.88-33,.45.06.91.11,1.38.13a20,20,0,0,0,8.07-1.05,13.28,13.28,0,0,0,6.55-5.13,12.51,12.51,0,0,0,1.61-3.64,11.46,11.46,0,0,0,.34-3.82A.57.57,0,0,0,270,253.22Zm-45.44-19.56c3.27.1,5.91.64,5.89,1.21s-2.68.94-6,.83-5.91-.65-5.89-1.21S221.29,233.55,224.57,233.66Zm1.61,62.86a5.38,5.38,0,0,1-7.69-.42C208,284.26,202.21,269.28,200.09,263l.51-.07a46.53,46.53,0,0,0,14-4.75c1.08-.61,2.16-1.2,3.18-1.89.84-.53,1.65-1.11,2.44-1.7,0,.34,0,.68,0,1,0,1.41,0,2.82,0,4.23l.16,4.21c.17,2.8.29,5.6.6,8.39a52.72,52.72,0,0,0,1.52,8.35.92.92,0,0,0,.68.64.9.9,0,0,0,1.06-.69h0a57.79,57.79,0,0,0,1.07-8.4c.17-2.79.19-5.58.28-8.36l.08-4.17,0-4.16,0-2.5c.46.53.94,1,1.43,1.53a43.26,43.26,0,0,0,5.66,4.8,45.11,45.11,0,0,0,13.41,6.43l1.17.3C244.57,272.48,237.5,286.22,226.18,296.52Z"/><path class="cls-2" d="M358.78,108.78a17.09,17.09,0,0,0-23-16.6c-32.76,12.35-62.29,40.95-63.65,42.27-2,.11-17.29-16.14-50.92-15-29.49,1-43,11.94-46.36,14.1l-.3.22c-.51.36-1,.73-1.51,1.1h0s-30.66-28.66-64.48-40.53a17.11,17.11,0,0,0-22.67,17.13c1.16,20.25,8.75,53.82,38.65,97.82a130.92,130.92,0,0,0-3,22.24l0,0c-2.73,61.9,48.58,74.33,65.63,78.46a179.39,179.39,0,0,0,28.5,4.18c4.3.34,8.92.55,13.79.55,21.85,0,48.41-4.27,70.28-20.52a87,87,0,0,0,7.56-6.3,60.35,60.35,0,0,0,14.61-21.23,63.38,63.38,0,0,0,4.13-15.17c1.07-7.56.41-17.57-2-30.57a111.29,111.29,0,0,0-2.5-13.2C350.41,163,358.1,129.05,358.78,108.78Zm-9.59.84s.93,40.25-32.85,82.38l-33-47.81S343.17,84.67,349.19,109.62ZM266.56,213.9a29.26,29.26,0,0,1,4.4-7.05,12.8,12.8,0,0,1,1.4-1.54l1.51-1.44a30.58,30.58,0,0,1,3.33-2.44,28.62,28.62,0,0,1,7.38-3.33c.65-.16,1.29-.34,1.94-.48s1.31-.26,2-.33a20.62,20.62,0,0,1,4-.18,1,1,0,0,1,.33,2l-.09,0a59.43,59.43,0,0,0-6.5,3.07,42.33,42.33,0,0,0-5.77,3.86c-.91.69-1.71,1.48-2.55,2.23l-1.15,1.22-.45.47a25,25,0,0,1,4.24-.11,22.13,22.13,0,0,1,6.27,1.27,21.33,21.33,0,0,1,5.55,2.87,1,1,0,0,1,.27,1.44,1.05,1.05,0,0,1-1.07.43l-.12,0c-.94-.2-1.83-.49-2.75-.66s-1.81-.36-2.73-.42a24.73,24.73,0,0,0-5.37,0,23.7,23.7,0,0,0-5.16,1c-.42.12-.83.28-1.24.41l-1.22.47c-.39.18-.79.34-1.16.53-.19.09-.37.19-.55.29l-.25.13-.19.11-.08,0a3,3,0,0,1-4.21-3.89Zm-101-5.34c2.62-10.9,10.76-18.28,18.18-16.5S195,204.12,192.41,215s-10.75,18.28-18.17,16.5S162.92,219.45,165.54,208.56ZM96.23,113.94c-2-27.26,63.14,32.68,63.14,32.68h0c-16.5,16.57-25.63,35.31-30.19,47.17C101.55,158.34,96.23,113.94,96.23,113.94Zm223.9,136.69a57.36,57.36,0,0,1-3.74,13.73,54.34,54.34,0,0,1-13.17,19.13,79.64,79.64,0,0,1-7,5.86c-20,14.85-47.66,21.35-80,18.81a173.84,173.84,0,0,1-27.56-4c-12-2.91-27.4-7.61-40-18.21C133,272.7,126,253.45,127.74,228.71l-.51,0c4.54-.69,10.63,1.42,18.81,8.56,29.8,26,49.43,4,57.57-28.74,5.54-22.3,12.25-31.57,16-35.22a4.1,4.1,0,0,1,5.68-.06,29.75,29.75,0,0,1,3.52,4c14.14,19.24,26.93,70.15,45.75,69.63,21.6-.58,32.05-19.56,38.29-23.32a5.82,5.82,0,0,1,5.55-.34C320.47,234.83,321.06,244.05,320.13,250.63Z"/></g></svg>